<svg xmlns="http://www.w3.org/2000/svg" width="1200" height="935" viewBox="325.23 178.93 23.26 18.11" shape-rendering="crispEdges"><polygon points="346.99,190.60 338.44,195.54 338.44,192.42 346.99,187.48" fill="#999999" stroke="#273a33" stroke-width="1" stroke-linejoin="round" /><polygon points="326.73,188.78 338.44,195.54 338.44,192.42 326.73,185.66" fill="#aeaeae" stroke="#273a33" stroke-width="1" stroke-linejoin="round" /><polygon points="335.29,180.72 346.99,187.48 338.44,192.42 326.73,185.66" fill="#cbcbcb" stroke="#273a33" stroke-width="1" stroke-linejoin="round" /><polygon points="327.60,188.58 337.43,194.26 337.43,193.22 327.60,187.54" fill="#7f7f7f" stroke="#273a33" stroke-width="1" stroke-linejoin="round" /><polygon points="339.90,190.50 339.04,190.99 339.04,189.95 339.90,189.46" fill="#565656" stroke="#273a33" stroke-width="1" stroke-linejoin="round" /><polygon points="329.21,185.31 339.04,190.99 339.04,189.95 329.21,184.27" fill="#757575" stroke="#273a33" stroke-width="1" stroke-linejoin="round" /><polygon points="330.06,183.78 339.90,189.46 339.04,189.95 329.21,184.27" fill="#929292" stroke="#273a33" stroke-width="1" stroke-linejoin="round" /><polygon points="339.38,190.79 338.48,191.31 338.48,186.63 339.38,186.11" fill="#9f9f9f" stroke="#273a33" stroke-width="1" stroke-linejoin="round" /><polygon points="328.65,185.63 338.48,191.31 338.48,186.63 328.65,180.95" fill="#afafaf" stroke="#273a33" stroke-width="1" stroke-linejoin="round" /><polygon points="329.55,180.43 339.38,186.11 338.48,186.63 328.65,180.95" fill="#c6c6c6" stroke="#273a33" stroke-width="1" stroke-linejoin="round" /><polygon points="330.10,184.05 338.53,188.92 338.53,187.88 330.10,183.01" fill="3" stroke="#273a33" stroke-width="1" stroke-linejoin="round" /><polygon points="337.54,185.02 333.94,187.09 333.94,186.05 337.54,183.98" fill="#9e9e9e" stroke="#273a33" stroke-width="1" stroke-linejoin="round" /><polygon points="332.54,186.28 333.94,187.09 333.94,186.05 332.54,185.24" fill="#b7b7b7" stroke="#273a33" stroke-width="1" stroke-linejoin="round" /><polygon points="336.13,183.16 337.54,183.98 333.94,186.05 332.54,185.24" fill="#d1d1d1" stroke="#273a33" stroke-width="1" stroke-linejoin="round" /><polygon points="339.64,186.23 336.05,188.31 336.05,187.27 339.64,185.19" fill="#c9c9c9" stroke="#273a33" stroke-width="1" stroke-linejoin="round" /><polygon points="334.65,187.50 336.05,188.31 336.05,187.27 334.65,186.46" fill="#dfdfdf" stroke="#273a33" stroke-width="1" stroke-linejoin="round" /><polygon points="338.24,184.38 339.64,185.19 336.05,187.27 334.65,186.46" fill="#f7f7f7" stroke="#273a33" stroke-width="1" stroke-linejoin="round" /><polygon points="341.75,187.45 338.16,189.52 338.16,188.48 341.75,186.41" fill="#999999" stroke="#273a33" stroke-width="1" stroke-linejoin="round" /><polygon points="336.75,188.71 338.16,189.52 338.16,188.48 336.75,187.67" fill="#aeaeae" stroke="#273a33" stroke-width="1" stroke-linejoin="round" /><polygon points="340.35,185.60 341.75,186.41 338.16,188.48 336.75,187.67" fill="#cbcbcb" stroke="#273a33" stroke-width="1" stroke-linejoin="round" /><polygon points="343.86,188.67 340.27,190.74 340.27,189.70 343.86,187.63" fill="#989898" stroke="#273a33" stroke-width="1" stroke-linejoin="round" /><polygon points="338.86,189.93 340.27,190.74 340.27,189.70 338.86,188.89" fill="#b4b4b4" stroke="#273a33" stroke-width="1" stroke-linejoin="round" /><polygon points="342.45,186.81 343.86,187.63 340.27,189.70 338.86,188.89" fill="#d3d3d3" stroke="#273a33" stroke-width="1" stroke-linejoin="round" /></svg>