<svg xmlns="http://www.w3.org/2000/svg" width="1200" height="995" viewBox="325.23 176.78 25.07 20.78" shape-rendering="crispEdges"><polygon points="348.80,190.60 339.34,196.06 339.34,192.11 348.80,186.65" fill="#9f9f9f" stroke="#273a33" stroke-width="1" stroke-linejoin="round" /><polygon points="326.73,188.78 339.34,196.06 339.34,192.11 326.73,184.83" fill="#afafaf" stroke="#273a33" stroke-width="1" stroke-linejoin="round" /><polygon points="336.19,179.37 348.80,186.65 339.34,192.11 326.73,184.83" fill="#c6c6c6" stroke="#273a33" stroke-width="1" stroke-linejoin="round" /><polygon points="327.67,188.41 338.26,194.53 338.26,193.49 327.67,187.37" fill="#acacac" stroke="#273a33" stroke-width="1" stroke-linejoin="round" /><polygon points="340.98,190.00 340.03,190.54 340.03,189.50 340.98,188.96" fill="#565656" stroke="#273a33" stroke-width="1" stroke-linejoin="round" /><polygon points="329.44,184.43 340.03,190.54 340.03,189.50 329.44,183.39" fill="#757575" stroke="#273a33" stroke-width="1" stroke-linejoin="round" /><polygon points="330.39,182.84 340.98,188.96 340.03,189.50 329.44,183.39" fill="#929292" stroke="#273a33" stroke-width="1" stroke-linejoin="round" /><polygon points="340.41,190.32 339.51,190.84 339.51,184.92 340.41,184.40" fill="#9f9f9f" stroke="#273a33" stroke-width="1" stroke-linejoin="round" /><polygon points="328.92,184.73 339.51,190.84 339.51,184.92 328.92,178.80" fill="#afafaf" stroke="#273a33" stroke-width="1" stroke-linejoin="round" /><polygon points="329.82,178.28 340.41,184.40 339.51,184.92 328.92,178.80" fill="#c6c6c6" stroke="#273a33" stroke-width="1" stroke-linejoin="round" /><polygon points="330.41,183.18 339.49,188.42 339.49,187.38 330.41,182.14" fill="5.399999999999999" stroke="#273a33" stroke-width="1" stroke-linejoin="round" /><polygon points="338.58,184.35 334.61,186.65 334.61,185.61 338.58,183.31" fill="#9e9e9e" stroke="#273a33" stroke-width="1" stroke-linejoin="round" /><polygon points="333.10,185.77 334.61,186.65 334.61,185.61 333.10,184.73" fill="#b7b7b7" stroke="#273a33" stroke-width="1" stroke-linejoin="round" /><polygon points="337.07,182.44 338.58,183.31 334.61,185.61 333.10,184.73" fill="#d1d1d1" stroke="#273a33" stroke-width="1" stroke-linejoin="round" /><polygon points="340.85,185.66 336.88,187.96 336.88,186.92 340.85,184.62" fill="#c9c9c9" stroke="#273a33" stroke-width="1" stroke-linejoin="round" /><polygon points="335.37,187.08 336.88,187.96 336.88,186.92 335.37,186.04" fill="#dfdfdf" stroke="#273a33" stroke-width="1" stroke-linejoin="round" /><polygon points="339.34,183.75 340.85,184.62 336.88,186.92 335.37,186.04" fill="#f7f7f7" stroke="#273a33" stroke-width="1" stroke-linejoin="round" /><polygon points="343.12,186.97 339.15,189.27 339.15,188.23 343.12,185.93" fill="#999999" stroke="#273a33" stroke-width="1" stroke-linejoin="round" /><polygon points="337.64,188.39 339.15,189.27 339.15,188.23 337.64,187.35" fill="#aeaeae" stroke="#273a33" stroke-width="1" stroke-linejoin="round" /><polygon points="341.61,185.06 343.12,185.93 339.15,188.23 337.64,187.35" fill="#cbcbcb" stroke="#273a33" stroke-width="1" stroke-linejoin="round" /><polygon points="345.39,188.28 341.42,190.58 341.42,189.54 345.39,187.24" fill="#989898" stroke="#273a33" stroke-width="1" stroke-linejoin="round" /><polygon points="339.91,189.70 341.42,190.58 341.42,189.54 339.91,188.66" fill="#b4b4b4" stroke="#273a33" stroke-width="1" stroke-linejoin="round" /><polygon points="343.88,186.37 345.39,187.24 341.42,189.54 339.91,188.66" fill="#d3d3d3" stroke="#273a33" stroke-width="1" stroke-linejoin="round" /></svg>