<svg xmlns="http://www.w3.org/2000/svg" width="1200" height="1376" viewBox="334.69 81.98 53.43 61.24" shape-rendering="crispEdges"><polygon points="386.62,141.20 385.72,141.72 385.72,112.60 386.62,112.08" fill="#565656" stroke="#273a33" stroke-width="1" stroke-linejoin="round" /><polygon points="336.19,113.12 385.72,141.72 385.72,112.60 336.19,84.00" fill="#757575" stroke="#273a33" stroke-width="1" stroke-linejoin="round" /><polygon points="337.09,83.48 386.62,112.08 385.72,112.60 336.19,84.00" fill="#929292" stroke="#273a33" stroke-width="1" stroke-linejoin="round" /><polygon points="337.47,112.38 384.30,139.42 384.30,113.42 337.47,86.38" fill="#d1d1d1" stroke="#273a33" stroke-width="1" stroke-linejoin="round" /><polygon points="341.95,109.38 345.91,111.66 345.91,110.10 341.95,107.82" fill="#969696" stroke="#273a33" stroke-width="1" stroke-linejoin="round" /><polygon points="347.15,108.59 351.11,110.88 351.11,109.32 347.15,107.03" fill="#c0c0c0" stroke="#273a33" stroke-width="1" stroke-linejoin="round" /><polygon points="352.35,107.81 356.32,110.10 356.32,108.54 352.35,106.25" fill="#8c8c8c" stroke="#273a33" stroke-width="1" stroke-linejoin="round" /><polygon points="357.55,118.38 361.52,120.67 361.52,119.11 357.55,116.82" fill="#969696" stroke="#273a33" stroke-width="1" stroke-linejoin="round" /><polygon points="362.76,117.60 366.72,119.89 366.72,118.33 362.76,116.04" fill="#c0c0c0" stroke="#273a33" stroke-width="1" stroke-linejoin="round" /><polygon points="367.96,116.82 371.92,119.11 371.92,117.55 367.96,115.26" fill="#8c8c8c" stroke="#273a33" stroke-width="1" stroke-linejoin="round" /><polygon points="373.16,127.39 377.12,129.68 377.12,128.12 373.16,125.83" fill="#969696" stroke="#273a33" stroke-width="1" stroke-linejoin="round" /></svg>