<svg xmlns="http://www.w3.org/2000/svg" width="1200" height="1374" viewBox="334.69 87.18 44.43 50.84" shape-rendering="crispEdges"><polygon points="377.62,136.00 376.72,136.52 376.72,112.60 377.62,112.08" fill="#9f9f9f" stroke="#273a33" stroke-width="1" stroke-linejoin="round" /><polygon points="336.19,113.12 376.72,136.52 376.72,112.60 336.19,89.20" fill="#afafaf" stroke="#273a33" stroke-width="1" stroke-linejoin="round" /><polygon points="337.09,88.68 377.62,112.08 376.72,112.60 336.19,89.20" fill="#c6c6c6" stroke="#273a33" stroke-width="1" stroke-linejoin="round" /><polygon points="337.47,112.38 375.30,134.22 375.30,113.42 337.47,91.58" fill="#d1d1d1" stroke="#273a33" stroke-width="1" stroke-linejoin="round" /><polygon points="340.87,110.05 344.11,111.92 344.11,110.36 340.87,108.49" fill="#969696" stroke="#273a33" stroke-width="1" stroke-linejoin="round" /><polygon points="345.13,109.40 348.37,111.27 348.37,109.71 345.13,107.84" fill="#c0c0c0" stroke="#273a33" stroke-width="1" stroke-linejoin="round" /><polygon points="349.38,108.75 352.62,110.62 352.62,109.06 349.38,107.19" fill="#8c8c8c" stroke="#273a33" stroke-width="1" stroke-linejoin="round" /><polygon points="353.64,117.42 356.88,119.30 356.88,117.73 353.64,115.86" fill="#969696" stroke="#273a33" stroke-width="1" stroke-linejoin="round" /><polygon points="357.89,116.77 361.13,118.64 361.13,117.08 357.89,115.21" fill="#c0c0c0" stroke="#273a33" stroke-width="1" stroke-linejoin="round" /><polygon points="362.15,116.12 365.39,117.99 365.39,116.43 362.15,114.56" fill="#8c8c8c" stroke="#273a33" stroke-width="1" stroke-linejoin="round" /><polygon points="366.40,124.79 369.65,126.67 369.65,125.11 366.40,123.23" fill="#969696" stroke="#273a33" stroke-width="1" stroke-linejoin="round" /></svg>