<svg xmlns="http://www.w3.org/2000/svg" width="1200" height="1388" viewBox="334.69 89.26 39.92 46.16" shape-rendering="crispEdges"><polygon points="373.11,133.40 372.21,133.92 372.21,112.08 373.11,111.56" fill="#9f9f9f" stroke="#273a33" stroke-width="1" stroke-linejoin="round" /><polygon points="336.19,113.12 372.21,133.92 372.21,112.08 336.19,91.28" fill="#afafaf" stroke="#273a33" stroke-width="1" stroke-linejoin="round" /><polygon points="337.09,90.76 373.11,111.56 372.21,112.08 336.19,91.28" fill="#c6c6c6" stroke="#273a33" stroke-width="1" stroke-linejoin="round" /><polygon points="337.47,112.38 370.79,131.62 370.79,112.90 337.47,93.66" fill="#d1d1d1" stroke="#273a33" stroke-width="1" stroke-linejoin="round" /><polygon points="340.33,110.26 343.21,111.92 343.21,110.36 340.33,108.70" fill="#969696" stroke="#273a33" stroke-width="1" stroke-linejoin="round" /><polygon points="344.11,109.60 346.99,111.27 346.99,109.71 344.11,108.04" fill="#c0c0c0" stroke="#273a33" stroke-width="1" stroke-linejoin="round" /><polygon points="347.89,108.95 350.78,110.61 350.78,109.05 347.89,107.39" fill="#8c8c8c" stroke="#273a33" stroke-width="1" stroke-linejoin="round" /><polygon points="351.68,116.81 354.56,118.48 354.56,116.92 351.68,115.25" fill="#969696" stroke="#273a33" stroke-width="1" stroke-linejoin="round" /><polygon points="355.46,116.16 358.34,117.82 358.34,116.26 355.46,114.60" fill="#c0c0c0" stroke="#273a33" stroke-width="1" stroke-linejoin="round" /><polygon points="359.24,115.50 362.13,117.17 362.13,115.61 359.24,113.94" fill="#8c8c8c" stroke="#273a33" stroke-width="1" stroke-linejoin="round" /><polygon points="363.03,123.36 365.91,125.03 365.91,123.47 363.03,121.80" fill="#969696" stroke="#273a33" stroke-width="1" stroke-linejoin="round" /></svg>