<svg xmlns="http://www.w3.org/2000/svg" width="1200" height="1388" viewBox="334.69 91.34 36.32 42.00" shape-rendering="crispEdges"><polygon points="369.51,131.32 368.61,131.84 368.61,112.08 369.51,111.56" fill="#9f9f9f" stroke="#273a33" stroke-width="1" stroke-linejoin="round" /><polygon points="336.19,113.12 368.61,131.84 368.61,112.08 336.19,93.36" fill="#afafaf" stroke="#273a33" stroke-width="1" stroke-linejoin="round" /><polygon points="337.09,92.84 369.51,111.56 368.61,112.08 336.19,93.36" fill="#c6c6c6" stroke="#273a33" stroke-width="1" stroke-linejoin="round" /><polygon points="337.47,112.38 367.19,129.54 367.19,112.90 337.47,95.74" fill="#cfcfcf" stroke="#273a33" stroke-width="1" stroke-linejoin="round" /><polygon points="339.90,110.53 342.49,112.03 342.49,110.47 339.90,108.97" fill="#969696" stroke="#273a33" stroke-width="1" stroke-linejoin="round" /><polygon points="343.30,109.93 345.90,111.42 345.90,109.86 343.30,108.37" fill="#c0c0c0" stroke="#273a33" stroke-width="1" stroke-linejoin="round" /><polygon points="346.71,109.32 349.30,110.82 349.30,109.26 346.71,107.76" fill="#8c8c8c" stroke="#273a33" stroke-width="1" stroke-linejoin="round" /><polygon points="350.11,116.43 352.70,117.92 352.70,116.36 350.11,114.87" fill="#969696" stroke="#273a33" stroke-width="1" stroke-linejoin="round" /><polygon points="353.51,115.82 356.11,117.32 356.11,115.76 353.51,114.26" fill="#c0c0c0" stroke="#273a33" stroke-width="1" stroke-linejoin="round" /><polygon points="356.92,115.22 359.51,116.72 359.51,115.16 356.92,113.66" fill="#8c8c8c" stroke="#273a33" stroke-width="1" stroke-linejoin="round" /><polygon points="360.32,122.32 362.92,123.82 362.92,122.26 360.32,120.76" fill="#969696" stroke="#273a33" stroke-width="1" stroke-linejoin="round" /></svg>