<svg xmlns="http://www.w3.org/2000/svg" width="1200" height="2030" viewBox="213.10 170.16 35.42 59.90" shape-rendering="crispEdges"><polygon points="247.02,219.20 230.81,228.56 230.81,213.92 247.02,204.56" fill="#989898" stroke="#273a33" stroke-width="1" stroke-linejoin="round" /><polygon points="214.60,219.20 230.81,228.56 230.81,213.92 214.60,204.56" fill="#b4b4b4" stroke="#273a33" stroke-width="1" stroke-linejoin="round" /><polygon points="230.81,195.20 247.02,204.56 230.81,213.92 214.60,204.56" fill="#d3d3d3" stroke="#273a33" stroke-width="1" stroke-linejoin="round" /><polygon points="231.71,205.89 230.81,206.41 230.81,181.78 231.71,181.26" fill="#9f9f9f" stroke="#273a33" stroke-width="1" stroke-linejoin="round" /><polygon points="229.91,205.89 230.81,206.41 230.81,181.78 229.91,181.26" fill="#afafaf" stroke="#273a33" stroke-width="1" stroke-linejoin="round" /><polygon points="230.81,180.74 231.71,181.26 230.81,181.78 229.91,181.26" fill="#c6c6c6" stroke="#273a33" stroke-width="1" stroke-linejoin="round" /><polygon points="230.81,199.11 233.42,195.93 238.27,194.57 236.33,189.81 232.30,192.17" fill="#898989" stroke="#273a33" stroke-width="1" stroke-linejoin="round" /><polygon points="230.81,193.78 231.22,191.17 231.99,190.85 230.73,186.23 230.59,187.43" fill="#8f8f8f" stroke="#273a33" stroke-width="1" stroke-linejoin="round" /><polygon points="230.81,188.46 228.83,185.44 225.17,184.37 225.18,180.34 228.99,182.01" fill="#838383" stroke="#273a33" stroke-width="1" stroke-linejoin="round" /><polygon points="230.81,199.11 227.37,194.91 220.98,191.64 222.25,188.38 228.23,191.93" fill="#7a7a7a" stroke="#273a33" stroke-width="1" stroke-linejoin="round" /><polygon points="230.81,193.78 227.51,188.17 221.39,182.29 223.33,179.63 228.68,185.59" fill="#727272" stroke="#273a33" stroke-width="1" stroke-linejoin="round" /><polygon points="230.81,188.46 229.20,181.87 226.21,174.18 227.91,171.66 230.13,179.43" fill="#898989" stroke="#273a33" stroke-width="1" stroke-linejoin="round" /><polygon points="230.81,199.11 231.64,192.44 233.18,184.59 233.84,181.69 231.89,189.82" fill="#8f8f8f" stroke="#273a33" stroke-width="1" stroke-linejoin="round" /><polygon points="230.81,193.78 233.69,187.96 239.04,181.69 238.36,178.05 233.15,184.93" fill="#838383" stroke="#273a33" stroke-width="1" stroke-linejoin="round" /><polygon points="230.81,188.46 234.39,184.02 241.05,180.30 239.34,175.94 233.31,180.53" fill="#7a7a7a" stroke="#273a33" stroke-width="1" stroke-linejoin="round" /></svg>