<svg xmlns="http://www.w3.org/2000/svg" width="1200" height="1698" viewBox="328.71 168.59 17.44 24.67" shape-rendering="crispEdges"><polygon points="343.00,188.41 337.19,191.76 337.19,185.43 343.00,182.08" fill="#999999" stroke="#273a33" stroke-width="1" stroke-linejoin="round" /><polygon points="330.21,187.73 337.19,191.76 337.19,185.43 330.21,181.40" fill="#b7b7b7" stroke="#273a33" stroke-width="1" stroke-linejoin="round" /><polygon points="336.01,178.05 343.00,182.08 337.19,185.43 330.21,181.40" fill="#d1d1d1" stroke="#273a33" stroke-width="1" stroke-linejoin="round" /><polygon points="343.67,182.42 337.87,185.77 337.87,178.23 343.67,174.88" fill="#c9c9c9" stroke="#273a33" stroke-width="1" stroke-linejoin="round" /><polygon points="332.24,182.52 337.87,185.77 337.87,178.23 332.24,174.98" fill="#dfdfdf" stroke="#273a33" stroke-width="1" stroke-linejoin="round" /><polygon points="338.04,171.63 343.67,174.88 337.87,178.23 332.24,174.98" fill="#f7f7f7" stroke="#273a33" stroke-width="1" stroke-linejoin="round" /><polygon points="340.04,174.53 337.55,175.97 337.55,172.95 340.04,171.52" fill="#c9c9c9" stroke="#273a33" stroke-width="1" stroke-linejoin="round" /><polygon points="335.07,174.54 337.55,175.97 337.55,172.95 335.07,171.52" fill="#dfdfdf" stroke="#273a33" stroke-width="1" stroke-linejoin="round" /><polygon points="337.56,170.09 340.04,171.52 337.55,172.95 335.07,171.52" fill="#f7f7f7" stroke="#273a33" stroke-width="1" stroke-linejoin="round" /><polygon points="344.65,177.20 342.17,178.63 342.17,175.62 344.65,174.18" fill="#c9c9c9" stroke="#273a33" stroke-width="1" stroke-linejoin="round" /><polygon points="339.69,177.20 342.17,178.63 342.17,175.62 339.69,174.19" fill="#dfdfdf" stroke="#273a33" stroke-width="1" stroke-linejoin="round" /><polygon points="342.18,172.75 344.65,174.18 342.17,175.62 339.69,174.19" fill="#f7f7f7" stroke="#273a33" stroke-width="1" stroke-linejoin="round" /></svg>