<svg xmlns="http://www.w3.org/2000/svg" width="1200" height="1584" viewBox="99.85 177.80 13.53 17.85" shape-rendering="crispEdges"><polygon points="110.67,190.04 103.75,194.04 103.75,191.44 110.67,187.44" fill="#565656" stroke="#273a33" stroke-width="1" stroke-linejoin="round" /><polygon points="101.91,192.98 103.75,194.04 103.75,191.44 101.91,190.38" fill="#757575" stroke="#273a33" stroke-width="1" stroke-linejoin="round" /><polygon points="108.83,186.38 110.67,187.44 103.75,191.44 101.91,190.38" fill="#929292" stroke="#273a33" stroke-width="1" stroke-linejoin="round" /><polygon points="111.24,187.15 103.24,191.76 103.24,185.00 111.24,180.39" fill="#9f9f9f" stroke="#273a33" stroke-width="1" stroke-linejoin="round" /><polygon points="101.35,190.67 103.24,191.76 103.24,185.00 101.35,183.91" fill="#afafaf" stroke="#273a33" stroke-width="1" stroke-linejoin="round" /><polygon points="109.34,179.30 111.24,180.39 103.24,185.00 101.35,183.91" fill="#c6c6c6" stroke="#273a33" stroke-width="1" stroke-linejoin="round" /><polygon points="111.88,185.21 102.59,190.58 102.59,186.94 111.88,181.57" fill="#6e6e6e" stroke="#273a33" stroke-width="1" stroke-linejoin="round" /><polygon points="111.53,183.95 103.10,188.82 103.10,188.30 111.53,183.43" fill="#bfbfbf" stroke="#273a33" stroke-width="1" stroke-linejoin="round" /><polygon points="106.94,193.71 106.18,194.15 106.18,192.07 106.94,191.63" fill="#565656" stroke="#273a33" stroke-width="1" stroke-linejoin="round" /><polygon points="105.32,193.65 106.18,194.15 106.18,192.07 105.32,191.57" fill="#757575" stroke="#273a33" stroke-width="1" stroke-linejoin="round" /><polygon points="106.07,191.14 106.94,191.63 106.18,192.07 105.32,191.57" fill="#929292" stroke="#273a33" stroke-width="1" stroke-linejoin="round" /></svg>