<svg xmlns="http://www.w3.org/2000/svg" width="1200" height="1521" viewBox="88.47 153.16 37.85 47.96" shape-rendering="crispEdges"><polygon points="120.33,184.64 94.39,199.62 94.39,197.02 120.33,182.04" fill="#565656" stroke="#273a33" stroke-width="1" stroke-linejoin="round" /><polygon points="92.25,198.38 94.39,199.62 94.39,197.02 92.25,195.78" fill="#757575" stroke="#273a33" stroke-width="1" stroke-linejoin="round" /><polygon points="118.19,180.80 120.33,182.04 94.39,197.02 92.25,195.78" fill="#929292" stroke="#273a33" stroke-width="1" stroke-linejoin="round" /><polygon points="122.39,180.89 92.40,198.20 92.40,173.24 122.39,155.93" fill="#9f9f9f" stroke="#273a33" stroke-width="1" stroke-linejoin="round" /><polygon points="90.19,196.93 92.40,198.20 92.40,173.24 90.19,171.97" fill="#afafaf" stroke="#273a33" stroke-width="1" stroke-linejoin="round" /><polygon points="120.18,154.66 122.39,155.93 92.40,173.24 90.19,171.97" fill="#c6c6c6" stroke="#273a33" stroke-width="1" stroke-linejoin="round" /><polygon points="124.82,177.93 89.97,198.05 89.97,176.21 124.82,156.09" fill="#363636" stroke="#273a33" stroke-width="1" stroke-linejoin="round" /><polygon points="123.30,177.36 91.68,195.61 91.68,176.89 123.30,158.64" fill="#676767" stroke="#273a33" stroke-width="1" stroke-linejoin="round" /><polygon points="120.93,172.94 114.44,176.68 114.44,174.48 120.93,170.74" fill="#bebebe" stroke="#273a33" stroke-width="1" stroke-linejoin="round" /><polygon points="111.60,172.81 96.20,181.70 96.20,180.05 111.60,171.16" fill="#a6a6a6" stroke="#273a33" stroke-width="1" stroke-linejoin="round" /><polygon points="107.61,193.41 104.77,195.05 104.77,192.97 107.61,191.33" fill="#565656" stroke="#273a33" stroke-width="1" stroke-linejoin="round" /><polygon points="103.76,194.47 104.77,195.05 104.77,192.97 103.76,192.39" fill="#757575" stroke="#273a33" stroke-width="1" stroke-linejoin="round" /><polygon points="106.60,190.75 107.61,191.33 104.77,192.97 103.76,192.39" fill="#929292" stroke="#273a33" stroke-width="1" stroke-linejoin="round" /></svg>